<svg xmlns="http://www.w3.org/2000/svg" xmlns:xlink="http://www.w3.org/1999/xlink" width="160" zoomAndPan="magnify" viewBox="0 0 120 43.92" height="48" preserveAspectRatio="xMidYMid meet" version="1.2"><defs><clipPath id="a5cd414948"><path d="M 0.109375 0 L 119.890625 0 L 119.890625 35.933594 L 0.109375 35.933594 Z M 0.109375 0 "/></clipPath><clipPath id="ce3ae69b44"><path d="M 5.964844 0 L 113.765625 0 L 113.765625 35.933594 L 5.964844 35.933594 Z M 5.964844 0 "/></clipPath></defs><g id="7dbec4b3f0"><g clip-rule="nonzero" clip-path="url(#a5cd414948)"><path style=" stroke:none;fill-rule:nonzero;fill:#ffffff;fill-opacity:1;" d="M 0.109375 0 L 119.890625 0 L 119.890625 35.933594 L 0.109375 35.933594 Z M 0.109375 0 "/><path style=" stroke:none;fill-rule:nonzero;fill:#ffffff;fill-opacity:1;" d="M 0.109375 0 L 119.890625 0 L 119.890625 35.933594 L 0.109375 35.933594 Z M 0.109375 0 "/></g><g clip-rule="nonzero" clip-path="url(#ce3ae69b44)"><path style=" stroke:none;fill-rule:nonzero;fill:#034ea2;fill-opacity:1;" d="M 113.699219 8.570312 C 115.167969 17.007812 92.257812 28.054688 62.523438 33.246094 C 32.789062 38.4375 7.496094 35.804688 6.03125 27.363281 C 4.566406 18.925781 27.480469 7.878906 57.214844 2.691406 C 86.945312 -2.503906 112.234375 0.128906 113.699219 8.570312 Z M 113.699219 8.570312 "/></g><path style=" stroke:none;fill-rule:nonzero;fill:#ffffff;fill-opacity:1;" d="M 85.714844 21.09375 L 85.5625 12.320312 L 88.320312 12.320312 L 88.320312 23.378906 L 84.355469 23.378906 L 81.601562 14.304688 L 81.542969 14.304688 L 81.695312 23.378906 L 78.953125 23.378906 L 78.953125 12.320312 L 83.09375 12.320312 L 85.652344 21.09375 Z M 85.714844 21.09375 "/><path style=" stroke:none;fill-rule:nonzero;fill:#ffffff;fill-opacity:1;" d="M 35.554688 13.355469 L 34.03125 23.496094 L 31.019531 23.496094 L 33.085938 12.320312 L 38.042969 12.320312 L 40.101562 23.496094 L 37.105469 23.496094 L 35.617188 13.355469 Z M 35.554688 13.355469 "/><path style=" stroke:none;fill-rule:nonzero;fill:#ffffff;fill-opacity:1;" d="M 47.109375 23.496094 L 45.246094 13.449219 L 45.1875 13.449219 L 45.117188 23.496094 L 42.324219 23.496094 L 42.570312 12.320312 L 47.117188 12.320312 L 48.496094 20.863281 L 48.554688 20.863281 L 49.929688 12.320312 L 54.476562 12.320312 L 54.71875 23.496094 L 51.933594 23.496094 L 51.859375 13.449219 L 51.800781 13.449219 L 49.9375 23.496094 Z M 47.109375 23.496094 "/><path style=" stroke:none;fill-rule:nonzero;fill:#ffffff;fill-opacity:1;" d="M 26.328125 20.34375 C 26.433594 20.613281 26.402344 20.960938 26.351562 21.171875 C 26.257812 21.542969 26.007812 21.921875 25.265625 21.921875 C 24.566406 21.921875 24.144531 21.519531 24.144531 20.90625 L 24.144531 19.824219 L 21.152344 19.824219 L 21.152344 20.691406 C 21.152344 23.179688 23.109375 23.933594 25.203125 23.933594 C 27.21875 23.933594 28.878906 23.242188 29.144531 21.378906 C 29.277344 20.414062 29.179688 19.78125 29.132812 19.542969 C 28.660156 17.207031 24.429688 16.507812 24.117188 15.199219 C 24.0625 14.972656 24.078125 14.738281 24.105469 14.609375 C 24.183594 14.253906 24.425781 13.859375 25.125 13.859375 C 25.773438 13.859375 26.160156 14.265625 26.160156 14.875 C 26.160156 15.082031 26.160156 15.566406 26.160156 15.566406 L 28.9375 15.566406 L 28.9375 14.78125 C 28.9375 12.347656 26.761719 11.964844 25.179688 11.964844 C 23.199219 11.964844 21.578125 12.621094 21.28125 14.441406 C 21.203125 14.945312 21.191406 15.390625 21.308594 15.953125 C 21.792969 18.234375 25.753906 18.894531 26.328125 20.34375 Z M 26.328125 20.34375 "/><path style=" stroke:none;fill-rule:nonzero;fill:#ffffff;fill-opacity:1;" d="M 62.570312 20.320312 C 62.679688 20.589844 62.644531 20.929688 62.59375 21.140625 C 62.503906 21.507812 62.253906 21.882812 61.515625 21.882812 C 60.828125 21.882812 60.40625 21.480469 60.40625 20.882812 L 60.40625 19.808594 L 57.445312 19.808594 L 57.445312 20.664062 C 57.445312 23.128906 59.382812 23.875 61.457031 23.875 C 63.453125 23.875 65.097656 23.191406 65.355469 21.347656 C 65.492188 20.386719 65.394531 19.765625 65.347656 19.53125 C 64.878906 17.214844 60.691406 16.523438 60.378906 15.226562 C 60.324219 15.003906 60.339844 14.769531 60.367188 14.648438 C 60.449219 14.289062 60.6875 13.90625 61.378906 13.90625 C 62.023438 13.90625 62.398438 14.300781 62.398438 14.90625 C 62.398438 15.109375 62.398438 15.589844 62.398438 15.589844 L 65.15625 15.589844 L 65.15625 14.8125 C 65.15625 12.40625 62.996094 12.027344 61.433594 12.027344 C 59.472656 12.027344 57.867188 12.675781 57.574219 14.480469 C 57.496094 14.976562 57.488281 15.417969 57.601562 15.972656 C 58.082031 18.234375 62 18.890625 62.570312 20.320312 Z M 62.570312 20.320312 "/><path style=" stroke:none;fill-rule:nonzero;fill:#ffffff;fill-opacity:1;" d="M 71.929688 21.824219 C 72.703125 21.824219 72.945312 21.285156 73 21.011719 C 73.023438 20.890625 73.027344 20.730469 73.027344 20.585938 L 73.027344 12.316406 L 75.84375 12.316406 L 75.84375 20.332031 C 75.851562 20.535156 75.828125 20.960938 75.820312 21.066406 C 75.621094 23.152344 73.976562 23.828125 71.929688 23.828125 C 69.878906 23.828125 68.234375 23.152344 68.039062 21.066406 C 68.027344 20.960938 68.007812 20.535156 68.015625 20.332031 L 68.015625 12.316406 L 70.832031 12.316406 L 70.832031 20.585938 C 70.832031 20.730469 70.835938 20.890625 70.855469 21.011719 C 70.917969 21.285156 71.152344 21.824219 71.929688 21.824219 Z M 71.929688 21.824219 "/><path style=" stroke:none;fill-rule:nonzero;fill:#ffffff;fill-opacity:1;" d="M 95.183594 21.707031 C 95.988281 21.707031 96.269531 21.195312 96.324219 20.894531 C 96.34375 20.765625 96.347656 20.613281 96.347656 20.46875 L 96.347656 18.847656 L 95.203125 18.847656 L 95.203125 17.21875 L 99.15625 17.21875 L 99.15625 20.214844 C 99.152344 20.425781 99.148438 20.578125 99.117188 20.953125 C 98.929688 22.984375 97.171875 23.710938 95.195312 23.710938 C 93.21875 23.710938 91.460938 22.984375 91.273438 20.953125 C 91.242188 20.578125 91.234375 20.425781 91.230469 20.214844 L 91.234375 15.511719 C 91.234375 15.3125 91.257812 14.960938 91.28125 14.773438 C 91.527344 12.6875 93.21875 12.015625 95.195312 12.015625 C 97.171875 12.015625 98.902344 12.683594 99.109375 14.773438 C 99.144531 15.132812 99.132812 15.511719 99.132812 15.511719 L 99.132812 15.882812 L 96.324219 15.882812 L 96.324219 15.257812 C 96.324219 15.257812 96.320312 14.992188 96.285156 14.832031 C 96.238281 14.585938 96.023438 14.019531 95.175781 14.019531 C 94.363281 14.019531 94.125 14.554688 94.066406 14.832031 C 94.03125 14.980469 94.019531 15.179688 94.019531 15.359375 L 94.019531 20.46875 C 94.015625 20.613281 94.023438 20.765625 94.046875 20.894531 C 94.09375 21.195312 94.375 21.707031 95.183594 21.707031 Z M 95.183594 21.707031 "/></g></svg>