<svg xmlns="http://www.w3.org/2000/svg" xmlns:xlink="http://www.w3.org/1999/xlink" width="160" zoomAndPan="magnify" viewBox="0 0 120 43.92" height="48" preserveAspectRatio="xMidYMid meet" version="1.2"><defs><clipPath id="791ee32758"><path d="M 0.109375 0 L 119.890625 0 L 119.890625 35.933594 L 0.109375 35.933594 Z M 0.109375 0 "/></clipPath><clipPath id="1d5f626d65"><path d="M 7.539062 8 L 37 8 L 37 35.933594 L 7.539062 35.933594 Z M 7.539062 8 "/></clipPath><clipPath id="55e23f34c3"><path d="M 22 0 L 112.351562 0 L 112.351562 35.933594 L 22 35.933594 Z M 22 0 "/></clipPath></defs><g id="d7f707eec8"><g clip-rule="nonzero" clip-path="url(#791ee32758)"><path style=" stroke:none;fill-rule:nonzero;fill:#ffffff;fill-opacity:1;" d="M 0.109375 0 L 119.890625 0 L 119.890625 35.933594 L 0.109375 35.933594 Z M 0.109375 0 "/><path style=" stroke:none;fill-rule:nonzero;fill:#ffffff;fill-opacity:1;" d="M 0.109375 0 L 119.890625 0 L 119.890625 35.933594 L 0.109375 35.933594 Z M 0.109375 0 "/></g><g clip-rule="nonzero" clip-path="url(#1d5f626d65)"><path style=" stroke:none;fill-rule:nonzero;fill:#000000;fill-opacity:1;" d="M 31.917969 19.09375 C 31.875 14.550781 35.625 12.371094 35.792969 12.265625 C 33.683594 9.179688 30.40625 8.753906 29.238281 8.707031 C 26.449219 8.421875 23.792969 10.351562 22.375 10.351562 C 20.957031 10.351562 18.773438 8.746094 16.457031 8.792969 C 13.414062 8.835938 10.605469 10.566406 9.039062 13.292969 C 5.878906 18.773438 8.234375 26.910156 11.316406 31.367188 C 12.824219 33.542969 14.617188 35.996094 16.976562 35.90625 C 19.253906 35.816406 20.109375 34.433594 22.851562 34.433594 C 25.59375 34.433594 26.367188 35.90625 28.765625 35.863281 C 31.210938 35.816406 32.757812 33.636719 34.253906 31.453125 C 35.976562 28.917969 36.6875 26.472656 36.734375 26.34375 C 36.675781 26.324219 31.972656 24.515625 31.917969 19.09375 "/></g><g clip-rule="nonzero" clip-path="url(#55e23f34c3)"><path style=" stroke:none;fill-rule:nonzero;fill:#000000;fill-opacity:1;" d="M 27.410156 5.753906 C 28.664062 4.234375 29.507812 2.128906 29.277344 0.0234375 C 27.472656 0.0976562 25.289062 1.226562 23.996094 2.746094 C 22.835938 4.089844 21.820312 6.234375 22.097656 8.296875 C 24.101562 8.453125 26.160156 7.269531 27.410156 5.753906 M 47.734375 23.554688 L 45.660156 29.855469 L 42.992188 29.855469 L 49.785156 9.835938 L 52.898438 9.835938 L 59.71875 29.855469 L 56.960938 29.855469 L 54.824219 23.554688 Z M 54.289062 21.535156 L 52.335938 15.773438 C 51.890625 14.464844 51.597656 13.277344 51.296875 12.117188 L 51.242188 12.117188 C 50.945312 13.304688 50.621094 14.519531 50.234375 15.742188 L 48.28125 21.53125 Z M 61.742188 20.171875 C 61.742188 18.332031 61.6875 16.839844 61.621094 15.476562 L 63.964844 15.476562 L 64.085938 17.945312 L 64.140625 17.945312 C 65.210938 16.191406 66.902344 15.152344 69.246094 15.152344 C 72.71875 15.152344 75.324219 18.09375 75.324219 22.460938 C 75.324219 27.628906 72.183594 30.179688 68.800781 30.179688 C 66.902344 30.179688 65.242188 29.347656 64.378906 27.925781 L 64.324219 27.925781 L 64.324219 35.734375 L 61.742188 35.734375 Z M 64.320312 24.003906 C 64.320312 24.390625 64.375 24.742188 64.441406 25.070312 C 64.917969 26.878906 66.488281 28.132812 68.359375 28.132812 C 71.117188 28.132812 72.722656 25.875 72.722656 22.578125 C 72.722656 19.695312 71.210938 17.234375 68.449219 17.234375 C 66.671875 17.234375 65.011719 18.511719 64.5 20.472656 C 64.410156 20.796875 64.324219 21.1875 64.324219 21.542969 Z M 78.023438 20.171875 C 78.023438 18.332031 77.96875 16.839844 77.902344 15.476562 L 80.246094 15.476562 L 80.367188 17.945312 L 80.425781 17.945312 C 81.492188 16.191406 83.183594 15.152344 85.527344 15.152344 C 89 15.152344 91.609375 18.09375 91.609375 22.460938 C 91.609375 27.628906 88.464844 30.179688 85.082031 30.179688 C 83.183594 30.179688 81.523438 29.347656 80.664062 27.925781 L 80.605469 27.925781 L 80.605469 35.734375 L 78.023438 35.734375 Z M 80.605469 24.003906 C 80.605469 24.390625 80.664062 24.742188 80.726562 25.070312 C 81.203125 26.878906 82.773438 28.132812 84.644531 28.132812 C 87.40625 28.132812 89.007812 25.875 89.007812 22.578125 C 89.007812 19.695312 87.496094 17.234375 84.738281 17.234375 C 82.960938 17.234375 81.296875 18.511719 80.789062 20.472656 C 80.699219 20.796875 80.609375 21.1875 80.609375 21.542969 Z M 94.3125 8.769531 L 96.921875 8.769531 L 96.921875 29.851562 L 94.3125 29.851562 Z M 102.175781 23.140625 C 102.230469 26.671875 104.488281 28.132812 107.09375 28.132812 C 108.964844 28.132812 110.09375 27.808594 111.070312 27.390625 L 111.515625 29.261719 C 110.597656 29.675781 109.023438 30.152344 106.742188 30.152344 C 102.320312 30.152344 99.679688 27.246094 99.679688 22.90625 C 99.679688 18.570312 102.230469 15.152344 106.410156 15.152344 C 111.101562 15.152344 112.34375 19.277344 112.34375 21.925781 C 112.34375 22.460938 112.289062 22.871094 112.253906 23.140625 Z M 109.828125 21.269531 C 109.859375 19.609375 109.144531 17.023438 106.207031 17.023438 C 103.566406 17.023438 102.410156 19.460938 102.203125 21.269531 Z M 109.828125 21.269531 "/></g></g></svg>