<svg xmlns="http://www.w3.org/2000/svg" xmlns:xlink="http://www.w3.org/1999/xlink" width="160" zoomAndPan="magnify" viewBox="0 0 120 43.92" height="48" preserveAspectRatio="xMidYMid meet" version="1.2"><defs><clipPath id="bc428ae181"><path d="M 0.109375 0 L 119.890625 0 L 119.890625 35.933594 L 0.109375 35.933594 Z M 0.109375 0 "/></clipPath></defs><g id="883ad0a491"><g clip-rule="nonzero" clip-path="url(#bc428ae181)"><path style=" stroke:none;fill-rule:nonzero;fill:#ffffff;fill-opacity:1;" d="M 0.109375 0 L 119.890625 0 L 119.890625 35.933594 L 0.109375 35.933594 Z M 0.109375 0 "/><path style=" stroke:none;fill-rule:nonzero;fill:#ffffff;fill-opacity:1;" d="M 0.109375 0 L 119.890625 0 L 119.890625 35.933594 L 0.109375 35.933594 Z M 0.109375 0 "/></g><path style=" stroke:none;fill-rule:nonzero;fill:#ea4335;fill-opacity:1;" d="M 52.117188 18.429688 C 52.117188 23.414062 48.214844 27.089844 43.421875 27.089844 C 38.628906 27.089844 34.726562 23.414062 34.726562 18.429688 C 34.726562 13.40625 38.628906 9.765625 43.421875 9.765625 C 48.214844 9.765625 52.117188 13.40625 52.117188 18.429688 Z M 48.3125 18.429688 C 48.3125 15.3125 46.046875 13.179688 43.421875 13.179688 C 40.796875 13.179688 38.53125 15.3125 38.53125 18.429688 C 38.53125 21.515625 40.796875 23.675781 43.421875 23.675781 C 46.046875 23.675781 48.3125 21.511719 48.3125 18.429688 Z M 48.3125 18.429688 "/><path style=" stroke:none;fill-rule:nonzero;fill:#fbbc05;fill-opacity:1;" d="M 70.878906 18.429688 C 70.878906 23.414062 66.972656 27.089844 62.183594 27.089844 C 57.390625 27.089844 53.484375 23.414062 53.484375 18.429688 C 53.484375 13.410156 57.390625 9.765625 62.183594 9.765625 C 66.972656 9.765625 70.878906 13.40625 70.878906 18.429688 Z M 67.070312 18.429688 C 67.070312 15.3125 64.808594 13.179688 62.183594 13.179688 C 59.554688 13.179688 57.292969 15.3125 57.292969 18.429688 C 57.292969 21.515625 59.554688 23.675781 62.183594 23.675781 C 64.808594 23.675781 67.070312 21.511719 67.070312 18.429688 Z M 67.070312 18.429688 "/><path style=" stroke:none;fill-rule:nonzero;fill:#4285f4;fill-opacity:1;" d="M 88.855469 10.289062 L 88.855469 25.839844 C 88.855469 32.238281 85.082031 34.851562 80.617188 34.851562 C 76.417969 34.851562 73.886719 32.042969 72.933594 29.746094 L 76.25 28.367188 C 76.839844 29.777344 78.285156 31.441406 80.613281 31.441406 C 83.472656 31.441406 85.242188 29.679688 85.242188 26.363281 L 85.242188 25.117188 L 85.109375 25.117188 C 84.257812 26.167969 82.613281 27.085938 80.542969 27.085938 C 76.210938 27.085938 72.238281 23.3125 72.238281 18.460938 C 72.238281 13.570312 76.210938 9.765625 80.542969 9.765625 C 82.609375 9.765625 84.253906 10.683594 85.109375 11.703125 L 85.242188 11.703125 L 85.242188 10.292969 L 88.855469 10.292969 Z M 85.511719 18.460938 C 85.511719 15.410156 83.476562 13.179688 80.882812 13.179688 C 78.257812 13.179688 76.058594 15.410156 76.058594 18.460938 C 76.058594 21.480469 78.257812 23.675781 80.882812 23.675781 C 83.476562 23.675781 85.511719 21.480469 85.511719 18.460938 Z M 85.511719 18.460938 "/><path style=" stroke:none;fill-rule:nonzero;fill:#34a853;fill-opacity:1;" d="M 91.105469 1.171875 L 94.816406 1.171875 L 94.816406 26.558594 L 91.105469 26.558594 Z M 91.105469 1.171875 "/><path style=" stroke:none;fill-rule:nonzero;fill:#ea4335;fill-opacity:1;" d="M 109.285156 21.28125 L 112.238281 23.246094 C 111.285156 24.65625 108.988281 27.085938 105.015625 27.085938 C 100.09375 27.085938 96.414062 23.28125 96.414062 18.425781 C 96.414062 13.273438 100.125 9.761719 104.589844 9.761719 C 109.089844 9.761719 111.289062 13.339844 112.007812 15.273438 L 112.402344 16.257812 L 100.816406 21.054688 C 101.703125 22.789062 103.082031 23.675781 105.015625 23.675781 C 106.957031 23.675781 108.300781 22.722656 109.285156 21.28125 Z M 100.191406 18.164062 L 107.9375 14.949219 C 107.511719 13.867188 106.230469 13.113281 104.71875 13.113281 C 102.785156 13.113281 100.09375 14.820312 100.191406 18.164062 Z M 100.191406 18.164062 "/><path style=" stroke:none;fill-rule:nonzero;fill:#4285f4;fill-opacity:1;" d="M 20.671875 16.175781 L 20.671875 12.5 L 33.066406 12.5 C 33.1875 13.140625 33.25 13.898438 33.25 14.71875 C 33.25 17.476562 32.496094 20.886719 30.0625 23.3125 C 27.699219 25.773438 24.679688 27.085938 20.675781 27.085938 C 13.257812 27.085938 7.019531 21.050781 7.019531 13.636719 C 7.019531 6.222656 13.257812 0.183594 20.675781 0.183594 C 24.78125 0.183594 27.703125 1.792969 29.898438 3.890625 L 27.304688 6.484375 C 25.730469 5.007812 23.59375 3.859375 20.671875 3.859375 C 15.253906 3.859375 11.019531 8.222656 11.019531 13.636719 C 11.019531 19.050781 15.253906 23.410156 20.671875 23.410156 C 24.183594 23.410156 26.1875 22 27.46875 20.722656 C 28.507812 19.683594 29.191406 18.199219 29.460938 16.171875 Z M 20.671875 16.175781 "/></g></svg>