<svg xmlns="http://www.w3.org/2000/svg" xmlns:xlink="http://www.w3.org/1999/xlink" width="160" zoomAndPan="magnify" viewBox="0 0 120 43.92" height="48" preserveAspectRatio="xMidYMid meet" version="1.2"><defs><clipPath id="75938fe0f0"><path d="M 0.109375 0 L 119.890625 0 L 119.890625 35.933594 L 0.109375 35.933594 Z M 0.109375 0 "/></clipPath><clipPath id="620902de27"><path d="M 0.109375 7.410156 L 119.890625 7.410156 L 119.890625 28.375 L 0.109375 28.375 Z M 0.109375 7.410156 "/></clipPath></defs><g id="15db20ea7f"><g clip-rule="nonzero" clip-path="url(#75938fe0f0)"><path style=" stroke:none;fill-rule:nonzero;fill:#ffffff;fill-opacity:1;" d="M 0.109375 0 L 119.890625 0 L 119.890625 35.933594 L 0.109375 35.933594 Z M 0.109375 0 "/><path style=" stroke:none;fill-rule:nonzero;fill:#ffffff;fill-opacity:1;" d="M 0.109375 0 L 119.890625 0 L 119.890625 35.933594 L 0.109375 35.933594 Z M 0.109375 0 "/></g><g clip-rule="nonzero" clip-path="url(#620902de27)"><path style=" stroke:none;fill-rule:nonzero;fill:#000000;fill-opacity:1;" d="M 42.78125 28.363281 C 38.4375 28.363281 34.414062 27.078125 31.730469 24.683594 C 30.761719 23.816406 30.011719 22.789062 29.488281 21.601562 C 28.964844 20.414062 28.710938 19.175781 28.726562 17.878906 C 28.722656 16.589844 28.980469 15.351562 29.503906 14.171875 C 30.03125 12.992188 30.769531 11.96875 31.730469 11.097656 C 34.222656 8.847656 38.632812 7.421875 42.78125 7.421875 C 47.375 7.421875 51.050781 8.570312 53.863281 11.101562 C 54.820312 11.972656 55.554688 12.996094 56.074219 14.175781 C 56.589844 15.355469 56.839844 16.589844 56.828125 17.878906 C 56.820312 19.164062 56.5625 20.398438 56.046875 21.582031 C 55.53125 22.761719 54.804688 23.796875 53.863281 24.683594 C 51.242188 27.09375 47.132812 28.363281 42.78125 28.363281 L 42.78125 25.605469 C 45.085938 25.605469 47.222656 24.816406 48.714844 23.34375 C 50.207031 21.867188 50.882812 20.078125 50.882812 17.867188 C 50.882812 15.761719 50.140625 13.789062 48.714844 12.394531 C 47.242188 10.957031 45.054688 10.144531 42.78125 10.144531 C 40.511719 10.144531 38.316406 10.949219 36.839844 12.394531 C 35.421875 13.792969 34.683594 15.769531 34.683594 17.867188 C 34.664062 18.886719 34.839844 19.871094 35.214844 20.820312 C 35.585938 21.765625 36.128906 22.609375 36.839844 23.34375 C 38.316406 24.800781 40.496094 25.605469 42.78125 25.605469 Z M 11.070312 7.421875 C 8.746094 7.421875 6.109375 7.855469 3.882812 8.847656 C 1.804688 9.773438 0.109375 11.253906 0.109375 13.714844 C 0.105469 15.050781 0.566406 16.203125 1.488281 17.179688 C 2.089844 17.730469 3.058594 18.667969 5.59375 19.21875 C 6.726562 19.457031 9.148438 19.839844 11.558594 20.09375 C 13.972656 20.347656 16.3125 20.570312 17.269531 20.824219 C 18.03125 21.015625 19.3125 21.277344 19.3125 22.707031 C 19.3125 24.132812 17.964844 24.5625 17.730469 24.65625 C 17.496094 24.75 15.875 25.484375 12.964844 25.484375 C 11.03125 25.433594 9.140625 25.109375 7.296875 24.515625 C 6.210938 24.132812 5.074219 23.625 4.011719 22.335938 C 3.574219 21.71875 3.347656 21.027344 3.328125 20.273438 L 0.695312 20.273438 L 0.695312 27.601562 L 3.621094 27.601562 L 3.621094 26.609375 C 3.621094 26.449219 3.691406 26.328125 3.832031 26.246094 C 3.972656 26.167969 4.113281 26.167969 4.253906 26.253906 C 5.636719 26.851562 7.0625 27.308594 8.535156 27.628906 C 10.074219 27.945312 11.070312 28.175781 12.980469 28.175781 C 15.011719 28.214844 16.996094 27.9375 18.9375 27.34375 C 20.226562 26.992188 21.40625 26.414062 22.476562 25.605469 C 23.078125 25.148438 23.546875 24.578125 23.878906 23.898438 C 24.210938 23.222656 24.375 22.503906 24.371094 21.75 C 24.375 21.042969 24.246094 20.359375 23.980469 19.703125 C 23.714844 19.046875 23.335938 18.464844 22.839844 17.957031 C 22.285156 17.421875 21.65625 16.992188 20.949219 16.675781 C 20.199219 16.335938 19.421875 16.066406 18.621094 15.867188 C 17.105469 15.5 13.691406 15.035156 12.0625 14.875 C 10.351562 14.699219 7.382812 14.453125 6.195312 14.089844 C 5.835938 13.976562 5.105469 13.632812 5.105469 12.789062 C 5.105469 12.1875 5.4375 11.675781 6.101562 11.265625 C 7.152344 10.609375 9.273438 10.203125 11.488281 10.203125 C 13.652344 10.175781 15.734375 10.582031 17.730469 11.414062 C 18.265625 11.644531 18.757812 11.9375 19.214844 12.296875 C 19.980469 12.941406 20.46875 13.753906 20.679688 14.726562 L 23.046875 14.726562 L 23.046875 8.347656 L 20.410156 8.347656 L 20.410156 9.085938 C 20.410156 9.324219 20.171875 9.640625 19.691406 9.378906 C 18.503906 8.765625 15.164062 7.4375 11.070312 7.421875 Z M 68.921875 8.59375 L 81.800781 20.136719 L 81.667969 12.363281 C 81.652344 11.34375 81.46875 10.917969 80.355469 10.917969 L 77.9375 10.917969 L 77.9375 8.59375 L 88.957031 8.59375 L 88.957031 10.917969 L 86.589844 10.917969 C 85.460938 10.917969 85.394531 11.277344 85.375 12.363281 L 85.574219 27.214844 L 81.800781 27.214844 L 66.964844 14.066406 L 66.964844 23.398438 C 66.976562 24.414062 67.023438 24.890625 68.074219 24.890625 L 70.710938 24.890625 L 70.710938 27.214844 L 59.910156 27.214844 L 59.910156 24.890625 L 62.4375 24.890625 C 63.382812 24.890625 63.34375 23.996094 63.34375 23.34375 L 63.34375 12.453125 C 63.34375 11.738281 63.242188 10.917969 61.761719 10.917969 L 59.710938 10.917969 L 59.710938 8.59375 Z M 101.527344 24.886719 C 101.746094 24.886719 101.964844 24.871094 102.179688 24.847656 C 102.417969 24.773438 102.589844 24.625 102.6875 24.398438 C 102.722656 24.234375 102.738281 24.066406 102.738281 23.894531 L 102.738281 20.21875 C 102.738281 20.097656 102.738281 20.09375 102.578125 19.898438 C 102.421875 19.703125 95.832031 12.285156 95.535156 11.949219 C 95.160156 11.546875 94.503906 10.917969 93.503906 10.917969 L 91.21875 10.917969 L 91.21875 8.59375 L 104.128906 8.59375 L 104.128906 10.914062 L 102.574219 10.914062 C 102.214844 10.914062 101.972656 11.253906 102.28125 11.628906 C 102.28125 11.628906 106.625 16.792969 106.667969 16.847656 C 106.707031 16.902344 106.742188 16.914062 106.796875 16.863281 C 106.855469 16.8125 111.253906 11.675781 111.285156 11.628906 C 111.402344 11.476562 111.414062 11.316406 111.324219 11.148438 C 111.234375 10.980469 111.09375 10.902344 110.902344 10.914062 L 109.304688 10.914062 L 109.304688 8.59375 L 119.890625 8.59375 L 119.890625 10.917969 L 117.527344 10.917969 C 116.667969 10.917969 116.328125 11.078125 115.675781 11.800781 L 108.546875 19.878906 C 108.476562 19.980469 108.445312 20.09375 108.460938 20.21875 L 108.460938 23.894531 C 108.460938 24.0625 108.480469 24.230469 108.515625 24.394531 C 108.613281 24.625 108.78125 24.773438 109.019531 24.84375 C 109.234375 24.871094 109.449219 24.886719 109.667969 24.882812 L 112.082031 24.882812 L 112.082031 27.210938 L 99.238281 27.210938 L 99.238281 24.882812 Z M 101.527344 24.886719 "/></g></g></svg>