<svg xmlns="http://www.w3.org/2000/svg" xmlns:xlink="http://www.w3.org/1999/xlink" width="160" zoomAndPan="magnify" viewBox="0 0 120 43.92" height="48" preserveAspectRatio="xMidYMid meet" version="1.2"><defs><clipPath id="e0b1d92312"><path d="M 0.109375 0 L 119.890625 0 L 119.890625 35.933594 L 0.109375 35.933594 Z M 0.109375 0 "/></clipPath><clipPath id="038185be8e"><path d="M 105 13 L 119.890625 13 L 119.890625 26.714844 L 105 26.714844 Z M 105 13 "/></clipPath><clipPath id="f711d2b028"><path d="M 100 8.460938 L 106 8.460938 L 106 13 L 100 13 Z M 100 8.460938 "/></clipPath><clipPath id="04ff833a7b"><path d="M 58 13 L 72 13 L 72 26.714844 L 58 26.714844 Z M 58 13 "/></clipPath><clipPath id="e387940dfe"><path d="M 0.109375 8.460938 L 17 8.460938 L 17 27 L 0.109375 27 Z M 0.109375 8.460938 "/></clipPath><clipPath id="739ed13039"><path d="M 44 13 L 58 13 L 58 26.714844 L 44 26.714844 Z M 44 13 "/></clipPath><clipPath id="52d4bf9726"><path d="M 16 13 L 30 13 L 30 26.714844 L 16 26.714844 Z M 16 13 "/></clipPath></defs><g id="fc964f1a90"><g clip-rule="nonzero" clip-path="url(#e0b1d92312)"><path style=" stroke:none;fill-rule:nonzero;fill:#ffffff;fill-opacity:1;" d="M 0.109375 0 L 119.890625 0 L 119.890625 35.933594 L 0.109375 35.933594 Z M 0.109375 0 "/><path style=" stroke:none;fill-rule:nonzero;fill:#ffffff;fill-opacity:1;" d="M 0.109375 0 L 119.890625 0 L 119.890625 35.933594 L 0.109375 35.933594 Z M 0.109375 0 "/></g><g clip-rule="nonzero" clip-path="url(#038185be8e)"><path style=" stroke:none;fill-rule:nonzero;fill:#0056a8;fill-opacity:1;" d="M 117.804688 24.6875 C 116.851562 25.671875 115.773438 26.261719 114.417969 26.53125 C 113.507812 26.710938 112.707031 26.75 111.777344 26.65625 C 110.546875 26.53125 109.53125 26.140625 108.539062 25.410156 C 107.730469 24.816406 107.148438 24.171875 106.640625 23.308594 C 106.25 22.644531 106.023438 22.019531 105.898438 21.257812 C 105.71875 20.203125 105.765625 19.277344 106.046875 18.242188 C 106.691406 15.898438 108.484375 14.234375 110.898438 13.742188 C 112.28125 13.457031 113.507812 13.488281 114.871094 13.832031 C 115.839844 14.082031 116.613281 14.496094 117.347656 15.171875 C 117.8125 15.59375 118.140625 16.019531 118.433594 16.570312 C 118.777344 17.222656 118.917969 17.855469 118.878906 18.585938 L 114.570312 18.585938 C 114.476562 18.019531 114.199219 17.566406 113.734375 17.21875 C 113.132812 16.765625 112.355469 16.730469 111.710938 17.121094 C 111.269531 17.390625 110.980469 17.757812 110.824219 18.242188 C 110.453125 19.402344 110.4375 20.480469 110.769531 21.652344 C 110.910156 22.144531 111.144531 22.527344 111.523438 22.878906 C 111.953125 23.285156 112.492188 23.453125 113.082031 23.367188 C 113.445312 23.3125 113.742188 23.15625 113.988281 22.882812 C 114.246094 22.601562 114.394531 22.300781 114.460938 21.929688 C 114.507812 21.664062 114.535156 21.441406 114.550781 21.175781 L 119.09375 21.175781 C 119.183594 22.527344 118.75 23.710938 117.804688 24.6875 "/></g><g clip-rule="nonzero" clip-path="url(#f711d2b028)"><path style=" stroke:none;fill-rule:nonzero;fill:#0056a8;fill-opacity:1;" d="M 100.4375 12.207031 L 105.152344 12.207031 L 105.152344 8.929688 L 100.4375 8.929688 Z M 100.4375 12.207031 "/></g><path style=" stroke:none;fill-rule:nonzero;fill:#0056a8;fill-opacity:1;" d="M 100.4375 26.296875 L 105.152344 26.296875 L 105.152344 13.890625 L 100.4375 13.890625 Z M 100.4375 26.296875 "/><path style=" stroke:none;fill-rule:nonzero;fill:#0056a8;fill-opacity:1;" d="M 90.675781 15.199219 C 91.296875 14.667969 91.886719 14.289062 92.636719 13.949219 C 93.851562 13.394531 95.070312 13.304688 96.355469 13.675781 C 97.738281 14.074219 98.734375 15.03125 99.167969 16.382812 C 99.378906 17.03125 99.46875 17.609375 99.46875 18.289062 L 99.46875 26.296875 L 94.464844 26.296875 L 94.464844 19.09375 C 94.464844 18.855469 94.433594 18.648438 94.363281 18.417969 C 94.234375 18.007812 93.957031 17.703125 93.550781 17.535156 C 92.664062 17.164062 91.65625 17.492188 91.167969 18.308594 C 90.964844 18.648438 90.871094 18.988281 90.871094 19.382812 L 90.871094 26.296875 L 86.023438 26.296875 L 86.023438 13.886719 L 90.570312 13.886719 L 90.675781 15.199219 "/><path style=" stroke:none;fill-rule:nonzero;fill:#0056a8;fill-opacity:1;" d="M 34.941406 15.199219 C 35.5625 14.667969 36.152344 14.289062 36.898438 13.949219 C 38.117188 13.394531 39.335938 13.304688 40.621094 13.675781 C 42.003906 14.074219 43 15.03125 43.433594 16.382812 C 43.644531 17.03125 43.734375 17.609375 43.734375 18.289062 L 43.734375 26.296875 L 38.730469 26.296875 L 38.730469 19.09375 C 38.730469 18.855469 38.699219 18.648438 38.628906 18.417969 C 38.5 18.007812 38.222656 17.703125 37.816406 17.535156 C 36.929688 17.164062 35.917969 17.492188 35.433594 18.308594 C 35.230469 18.648438 35.136719 18.988281 35.136719 19.382812 L 35.136719 26.296875 L 30.289062 26.296875 L 30.289062 13.886719 L 34.835938 13.886719 L 34.941406 15.199219 "/><g clip-rule="nonzero" clip-path="url(#04ff833a7b)"><path style=" stroke:none;fill-rule:nonzero;fill:#0056a8;fill-opacity:1;" d="M 64.644531 21.734375 C 65.003906 21.796875 65.308594 21.871094 65.652344 21.984375 C 65.945312 22.078125 66.140625 22.300781 66.207031 22.589844 C 66.273438 22.910156 66.183594 23.214844 65.949219 23.445312 C 65.714844 23.679688 65.445312 23.816406 65.113281 23.867188 C 64.667969 23.9375 64.273438 23.898438 63.851562 23.75 C 63.644531 23.675781 63.484375 23.585938 63.316406 23.449219 C 63.097656 23.269531 62.957031 23.0625 62.875 22.796875 C 62.804688 22.570312 62.777344 22.371094 62.78125 22.132812 L 58.164062 22.132812 L 58.164062 22.398438 C 58.164062 22.828125 58.234375 23.1875 58.386719 23.589844 C 58.617188 24.191406 58.933594 24.65625 59.414062 25.09375 C 60.039062 25.671875 60.691406 26.03125 61.511719 26.261719 C 63.21875 26.738281 64.753906 26.835938 66.507812 26.570312 C 67.332031 26.445312 68.007812 26.226562 68.75 25.851562 C 69.074219 25.683594 69.335938 25.511719 69.617188 25.28125 C 70.863281 24.25 71.324219 22.675781 70.828125 21.152344 C 70.640625 20.574219 70.339844 20.132812 69.878906 19.734375 C 69.242188 19.195312 68.597656 18.847656 67.789062 18.617188 C 67.613281 18.566406 67.460938 18.523438 67.285156 18.476562 C 66.296875 18.203125 65.445312 18.027344 64.429688 17.878906 C 64.160156 17.839844 63.929688 17.796875 63.664062 17.734375 C 63.539062 17.703125 63.4375 17.671875 63.320312 17.617188 C 63.039062 17.492188 62.910156 17.164062 63.039062 16.886719 C 63.046875 16.871094 63.054688 16.855469 63.0625 16.84375 C 63.214844 16.574219 63.4375 16.398438 63.738281 16.3125 C 64.265625 16.164062 64.75 16.175781 65.265625 16.351562 C 65.761719 16.515625 66.074219 16.964844 66.050781 17.480469 L 70.5 17.480469 C 70.496094 16.941406 70.410156 16.488281 70.226562 15.980469 C 70.039062 15.46875 69.753906 15.078125 69.316406 14.742188 C 68.9375 14.445312 68.582031 14.246094 68.128906 14.074219 C 67.691406 13.90625 67.304688 13.800781 66.839844 13.71875 C 65.738281 13.535156 64.789062 13.480469 63.675781 13.542969 C 63.035156 13.582031 62.5 13.65625 61.875 13.800781 C 61.035156 13.996094 60.359375 14.316406 59.679688 14.839844 C 59.101562 15.285156 58.726562 15.804688 58.484375 16.484375 C 58.375 16.792969 58.320312 17.070312 58.308594 17.394531 C 58.28125 17.9375 58.363281 18.402344 58.566406 18.90625 C 58.933594 19.8125 59.585938 20.457031 60.507812 20.816406 C 60.972656 21 61.382812 21.121094 61.875 21.222656 C 62.84375 21.417969 63.667969 21.570312 64.644531 21.734375 "/></g><g clip-rule="nonzero" clip-path="url(#e387940dfe)"><path style=" stroke:none;fill-rule:nonzero;fill:#0056a8;fill-opacity:1;" d="M 9.480469 20.945312 L 6.246094 20.945312 L 6.246094 16.875 L 8.347656 16.875 C 8.746094 16.875 9.085938 16.867188 9.484375 16.84375 C 10.035156 16.816406 10.496094 16.570312 10.824219 16.132812 C 11 15.898438 11.097656 15.664062 11.140625 15.378906 C 11.175781 15.136719 11.179688 14.929688 11.15625 14.6875 C 11.066406 13.78125 10.300781 13.101562 9.378906 13.101562 L 6.246094 13.101562 L 6.246094 26.296875 L 0.890625 26.296875 L 0.890625 8.925781 L 9.644531 8.925781 C 9.992188 8.925781 10.285156 8.933594 10.632812 8.953125 C 12.953125 9.074219 14.867188 10.34375 15.847656 12.417969 C 16.363281 13.496094 16.535156 14.535156 16.402344 15.71875 C 16.125 18.214844 14.355469 20.15625 11.863281 20.691406 C 11.039062 20.871094 10.324219 20.945312 9.480469 20.945312 "/></g><path style=" stroke:none;fill-rule:nonzero;fill:#0056a8;fill-opacity:1;" d="M 79.761719 13.652344 C 79.261719 13.574219 78.835938 13.542969 78.332031 13.542969 C 77.828125 13.542969 77.402344 13.574219 76.902344 13.652344 C 75.457031 13.875 74.285156 14.449219 73.230469 15.445312 C 72.097656 16.515625 71.480469 17.78125 71.335938 19.316406 C 71.25 20.261719 71.324219 21.074219 71.582031 21.988281 C 71.980469 23.386719 72.722656 24.46875 73.894531 25.351562 C 74.664062 25.9375 75.433594 26.285156 76.382812 26.492188 C 77.058594 26.636719 77.640625 26.695312 78.332031 26.695312 C 79.023438 26.695312 79.605469 26.636719 80.28125 26.492188 C 81.230469 26.285156 82 25.9375 82.769531 25.351562 L 80.0625 22.449219 C 79.632812 23.390625 78.511719 23.808594 77.554688 23.386719 C 77.113281 23.191406 76.800781 22.882812 76.601562 22.449219 C 76.417969 22.046875 76.308594 21.6875 76.242188 21.25 C 76.109375 20.378906 76.125 19.621094 76.296875 18.757812 C 76.386719 18.308594 76.539062 17.941406 76.792969 17.558594 C 77.351562 16.722656 78.488281 16.488281 79.339844 17.035156 C 79.5625 17.179688 79.722656 17.339844 79.867188 17.558594 C 80.125 17.941406 80.277344 18.308594 80.363281 18.757812 C 80.535156 19.621094 80.554688 20.378906 80.417969 21.25 C 80.351562 21.6875 80.246094 22.046875 80.0625 22.449219 L 82.769531 25.351562 C 83.941406 24.46875 84.683594 23.386719 85.082031 21.988281 C 85.339844 21.074219 85.410156 20.261719 85.324219 19.316406 C 85.183594 17.78125 84.566406 16.515625 83.4375 15.445312 C 82.378906 14.445312 81.207031 13.875 79.761719 13.652344 "/><g clip-rule="nonzero" clip-path="url(#739ed13039)"><path style=" stroke:none;fill-rule:nonzero;fill:#0056a8;fill-opacity:1;" d="M 57.648438 25.324219 C 57.578125 24.304688 57.539062 23.4375 57.519531 22.410156 C 57.492188 21.0625 57.472656 19.925781 57.464844 18.578125 C 57.457031 17.851562 57.378906 17.238281 57.191406 16.535156 C 56.949219 15.613281 56.402344 14.910156 55.558594 14.445312 C 55.046875 14.164062 54.578125 13.992188 54.007812 13.871094 C 52.191406 13.488281 50.585938 13.457031 48.753906 13.769531 C 48.238281 13.855469 47.816406 13.976562 47.332031 14.175781 C 46.214844 14.628906 45.445312 15.457031 45.089844 16.59375 C 44.953125 17.027344 44.914062 17.421875 44.96875 17.871094 C 44.976562 17.957031 45 18.023438 45.035156 18.101562 L 49.277344 18.203125 C 49.265625 17.9375 49.300781 17.710938 49.394531 17.460938 C 49.53125 17.082031 49.804688 16.808594 50.191406 16.671875 C 50.761719 16.464844 51.308594 16.457031 51.882812 16.644531 C 52.261719 16.765625 52.53125 17.035156 52.648438 17.410156 C 52.722656 17.644531 52.6875 17.875 52.542969 18.074219 C 52.417969 18.25 52.265625 18.371094 52.058594 18.449219 C 51.933594 18.496094 51.824219 18.53125 51.695312 18.5625 C 51.105469 18.71875 50.601562 18.828125 50 18.925781 C 49.523438 19.003906 49.125 19.078125 48.652344 19.171875 C 48.007812 19.296875 47.472656 19.433594 46.851562 19.632812 C 46.28125 19.816406 45.832031 20.074219 45.390625 20.472656 C 44.820312 20.988281 44.492188 21.597656 44.382812 22.355469 C 44.3125 22.859375 44.328125 23.300781 44.441406 23.800781 C 44.738281 25.09375 45.652344 26.050781 46.945312 26.421875 C 48.382812 26.832031 49.726562 26.761719 51.113281 26.214844 C 51.789062 25.945312 52.300781 25.574219 52.765625 25.023438 L 52.464844 22.890625 C 52.253906 23.21875 51.988281 23.441406 51.628906 23.597656 C 51.292969 23.742188 50.988281 23.820312 50.621094 23.855469 C 50.316406 23.886719 50.050781 23.863281 49.757812 23.78125 C 49.515625 23.71875 49.328125 23.605469 49.160156 23.429688 C 49.015625 23.277344 48.929688 23.113281 48.886719 22.90625 C 48.816406 22.59375 48.921875 22.292969 49.171875 22.085938 C 49.335938 21.945312 49.5 21.855469 49.703125 21.78125 C 50.195312 21.601562 50.617188 21.46875 51.121094 21.328125 C 51.730469 21.15625 52.234375 20.972656 52.808594 20.714844 C 52.867188 21.167969 52.863281 21.554688 52.800781 22.007812 C 52.753906 22.339844 52.648438 22.613281 52.464844 22.890625 L 52.765625 25.023438 C 52.855469 25.328125 52.941406 25.582031 53.046875 25.878906 C 53.109375 26.042969 53.183594 26.171875 53.304688 26.304688 L 57.972656 26.304688 C 57.773438 25.996094 57.671875 25.691406 57.648438 25.324219 "/></g><g clip-rule="nonzero" clip-path="url(#52d4bf9726)"><path style=" stroke:none;fill-rule:nonzero;fill:#0056a8;fill-opacity:1;" d="M 29.355469 25.324219 C 29.285156 24.304688 29.246094 23.4375 29.226562 22.410156 C 29.199219 21.0625 29.183594 19.925781 29.171875 18.578125 C 29.167969 17.851562 29.085938 17.238281 28.902344 16.535156 C 28.660156 15.613281 28.109375 14.910156 27.265625 14.445312 C 26.753906 14.164062 26.289062 13.992188 25.714844 13.871094 C 23.898438 13.488281 22.292969 13.457031 20.460938 13.769531 C 19.949219 13.855469 19.523438 13.976562 19.039062 14.175781 C 17.925781 14.628906 17.15625 15.457031 16.796875 16.59375 C 16.660156 17.027344 16.625 17.421875 16.675781 17.871094 C 16.6875 17.957031 16.707031 18.023438 16.746094 18.101562 L 20.984375 18.203125 C 20.976562 17.9375 21.011719 17.710938 21.101562 17.460938 C 21.238281 17.082031 21.511719 16.808594 21.898438 16.671875 C 22.46875 16.464844 23.015625 16.457031 23.59375 16.644531 C 23.972656 16.765625 24.242188 17.035156 24.359375 17.410156 C 24.433594 17.644531 24.394531 17.875 24.253906 18.074219 C 24.125 18.25 23.972656 18.371094 23.769531 18.449219 C 23.640625 18.496094 23.535156 18.53125 23.402344 18.5625 C 22.816406 18.71875 22.3125 18.828125 21.710938 18.925781 C 21.234375 19.003906 20.832031 19.078125 20.359375 19.171875 C 19.71875 19.296875 19.183594 19.433594 18.558594 19.632812 C 17.992188 19.816406 17.542969 20.074219 17.101562 20.472656 C 16.527344 20.988281 16.203125 21.597656 16.09375 22.355469 C 16.019531 22.859375 16.035156 23.300781 16.152344 23.800781 C 16.445312 25.09375 17.359375 26.050781 18.652344 26.421875 C 20.089844 26.832031 21.4375 26.761719 22.820312 26.214844 C 23.496094 25.945312 24.011719 25.574219 24.472656 25.023438 L 24.175781 22.890625 C 23.960938 23.21875 23.695312 23.441406 23.335938 23.597656 C 23 23.742188 22.695312 23.820312 22.332031 23.855469 C 22.023438 23.886719 21.761719 23.863281 21.464844 23.78125 C 21.226562 23.71875 21.039062 23.605469 20.867188 23.429688 C 20.722656 23.277344 20.636719 23.113281 20.59375 22.90625 C 20.527344 22.59375 20.632812 22.292969 20.878906 22.085938 C 21.042969 21.945312 21.207031 21.855469 21.410156 21.78125 C 21.902344 21.601562 22.324219 21.46875 22.828125 21.328125 C 23.4375 21.15625 23.941406 20.972656 24.519531 20.714844 C 24.574219 21.167969 24.570312 21.554688 24.507812 22.007812 C 24.460938 22.339844 24.359375 22.613281 24.175781 22.890625 L 24.472656 25.023438 C 24.566406 25.328125 24.652344 25.582031 24.757812 25.878906 C 24.816406 26.042969 24.894531 26.171875 25.011719 26.304688 L 29.683594 26.304688 C 29.484375 25.996094 29.382812 25.691406 29.355469 25.324219 "/></g></g></svg>