<svg xmlns="http://www.w3.org/2000/svg" xmlns:xlink="http://www.w3.org/1999/xlink" width="160" zoomAndPan="magnify" viewBox="0 0 120 36.000001" height="48" preserveAspectRatio="xMidYMid meet" version="1.2"><defs><clipPath id="02499948b1"><path d="M 1.621094 0 L 118.378906 0 L 118.378906 35.027344 L 1.621094 35.027344 Z M 1.621094 0 "/></clipPath></defs><g id="ae7bb49fd9"><g clip-rule="nonzero" clip-path="url(#02499948b1)"><path style=" stroke:none;fill-rule:nonzero;fill:#ffffff;fill-opacity:1;" d="M 1.621094 0 L 118.378906 0 L 118.378906 35.027344 L 1.621094 35.027344 Z M 1.621094 0 "/><path style=" stroke:none;fill-rule:nonzero;fill:#ffffff;fill-opacity:1;" d="M 1.621094 0 L 118.378906 0 L 118.378906 35.027344 L 1.621094 35.027344 Z M 1.621094 0 "/></g><path style=" stroke:none;fill-rule:nonzero;fill:#262729;fill-opacity:1;" d="M 48.183594 14.140625 L 46.136719 14.140625 L 46.136719 23.867188 L 48.183594 23.867188 L 48.183594 19.921875 L 52.675781 19.921875 L 52.675781 23.867188 L 54.660156 23.867188 L 54.660156 14.140625 L 52.675781 14.140625 L 52.675781 18.082031 L 48.183594 18.082031 Z M 63.910156 19.726562 C 63.910156 21.304688 63.117188 22.15625 61.664062 22.15625 C 60.210938 22.15625 59.417969 21.304688 59.417969 19.660156 L 59.417969 14.140625 L 57.433594 14.140625 L 57.433594 19.726562 C 57.433594 22.484375 58.953125 24.0625 61.664062 24.0625 C 64.371094 24.0625 65.890625 22.484375 65.890625 19.660156 L 65.890625 14.140625 L 63.910156 14.140625 Z M 83.070312 14.140625 L 80.824219 20.84375 L 78.644531 14.140625 L 76.53125 14.140625 L 79.964844 23.867188 L 81.617188 23.867188 L 83.863281 17.492188 L 86.042969 23.867188 L 87.761719 23.867188 L 91.132812 14.140625 L 89.085938 14.140625 L 86.902344 20.84375 L 84.65625 14.140625 Z M 98.335938 17.886719 L 94.699219 17.886719 L 94.699219 15.914062 L 99.984375 15.914062 L 99.984375 14.140625 L 92.71875 14.140625 L 92.71875 23.867188 L 100.183594 23.867188 L 100.183594 22.09375 L 94.699219 22.09375 L 94.699219 19.660156 L 98.335938 19.660156 Z M 102.5625 14.140625 L 104.546875 14.140625 L 104.546875 23.867188 L 102.5625 23.867188 Z M 74.285156 21.828125 L 75.140625 23.867188 L 77.257812 23.867188 L 72.960938 14.140625 L 72.894531 14.074219 L 71.179688 14.074219 L 66.882812 23.867188 L 68.929688 23.867188 L 69.789062 21.960938 L 69.855469 21.828125 Z M 72.035156 16.570312 L 73.425781 19.859375 L 73.492188 20.054688 L 70.449219 20.054688 L 70.515625 19.859375 Z M 72.035156 16.570312 "/><path style=" stroke:none;fill-rule:nonzero;fill:#cf0a2c;fill-opacity:1;" d="M 26.578125 22.878906 C 26.578125 22.878906 26.644531 22.816406 26.578125 22.816406 C 23.539062 16.242188 19.375 11.183594 19.375 11.183594 C 19.375 11.183594 17.128906 13.285156 17.261719 15.453125 C 17.328125 17.097656 18.582031 18.019531 18.582031 18.019531 C 20.566406 19.921875 25.324219 22.355469 26.445312 22.878906 L 26.578125 22.878906 M 25.785156 24.523438 C 25.785156 24.457031 25.652344 24.457031 25.652344 24.457031 L 17.722656 24.71875 C 18.582031 26.230469 20.035156 27.414062 21.554688 27.085938 C 22.613281 26.824219 24.992188 25.179688 25.71875 24.65625 C 25.851562 24.523438 25.785156 24.523438 25.785156 24.523438 M 25.917969 23.800781 C 25.984375 23.734375 25.917969 23.667969 25.917969 23.667969 C 22.414062 21.304688 15.675781 17.753906 15.675781 17.753906 C 15.082031 19.660156 15.875 21.171875 15.875 21.171875 C 16.734375 23.011719 18.382812 23.539062 18.382812 23.539062 C 19.113281 23.867188 19.90625 23.867188 19.90625 23.867188 L 25.851562 23.867188 C 25.917969 23.867188 25.917969 23.800781 25.917969 23.800781 M 26.445312 7.765625 C 26.117188 7.765625 25.191406 8.027344 25.191406 8.027344 C 23.074219 8.554688 22.613281 10.460938 22.613281 10.460938 C 22.21875 11.644531 22.613281 12.957031 22.613281 12.957031 C 23.339844 16.046875 26.777344 21.171875 27.503906 22.222656 L 27.570312 22.289062 C 27.636719 22.289062 27.636719 22.222656 27.636719 22.222656 C 28.824219 10.722656 26.445312 7.765625 26.445312 7.765625 M 29.089844 22.222656 C 29.15625 22.222656 29.222656 22.15625 29.222656 22.15625 C 30.015625 21.039062 33.382812 15.980469 34.109375 12.890625 C 34.109375 12.890625 34.507812 11.378906 34.109375 10.394531 C 34.109375 10.394531 33.582031 8.488281 31.46875 7.964844 C 31.46875 7.964844 30.871094 7.832031 30.210938 7.699219 C 30.210938 7.699219 27.832031 10.722656 29.023438 22.09375 C 29.023438 22.222656 29.089844 22.222656 29.089844 22.222656 M 30.9375 24.457031 C 30.9375 24.457031 30.871094 24.457031 30.871094 24.523438 L 30.871094 24.65625 C 31.664062 25.179688 33.910156 26.824219 35.035156 27.085938 C 35.035156 27.085938 37.082031 27.808594 38.867188 24.71875 Z M 41.046875 17.6875 C 41.046875 17.6875 34.308594 21.304688 30.804688 23.667969 C 30.804688 23.667969 30.742188 23.734375 30.742188 23.800781 C 30.742188 23.800781 30.742188 23.867188 30.804688 23.867188 L 36.886719 23.867188 C 36.886719 23.867188 37.480469 23.867188 38.273438 23.539062 C 38.273438 23.539062 39.925781 23.011719 40.851562 21.105469 C 40.851562 21.039062 41.644531 19.527344 41.046875 17.6875 M 30.144531 22.878906 C 30.144531 22.878906 30.210938 22.945312 30.277344 22.878906 C 31.402344 22.289062 36.160156 19.921875 38.140625 18.019531 C 38.140625 18.019531 39.394531 17.03125 39.460938 15.453125 C 39.59375 13.21875 37.347656 11.183594 37.347656 11.183594 C 37.347656 11.183594 33.183594 16.113281 30.144531 22.75 C 30.144531 22.75 30.078125 22.816406 30.144531 22.878906 "/></g></svg>